inDegrees=yes
name=ik_S54_A02_T01
DataType=double
version=3
OpenSimVersion=4.3-2021-08-27-4bc7ad9
endheader
time	pelvis_tilt	pelvis_list	pelvis_rotation	pelvis_tx	pelvis_ty	pelvis_tz	hip_flexion_r	hip_adduction_r	hip_rotation_r	knee_angle_r	knee_angle_r_beta	ankle_angle_r	subtalar_angle_r	mtp_angle_r	hip_flexion_l	hip_adduction_l	hip_rotation_l	knee_angle_l	knee_angle_l_beta	ankle_angle_l	subtalar_angle_l	mtp_angle_l	lumbar_extension	lumbar_bending	lumbar_rotation	arm_flex_r	arm_add_r	arm_rot_r	elbow_flex_r	pro_sup_r	wrist_flex_r	wrist_dev_r	arm_flex_l	arm_add_l	arm_rot_l	elbow_flex_l	pro_sup_l	wrist_flex_l	wrist_dev_l
0	0	0	0	0	0.9399999999999999	0	0	0	0	0	0	0	0	0	0	0	0	0	0	0	0	0	0	0	0	0	0	0	0	89.99999999963507	0	0	0	0	0	0	89.99999999869995	0	0
0.02	1.17746862500299	0.1382158187995097	89.68699366974376	0	0.9399999999999999	0	-4.648222623930485	1.292442501659467	-5.827665345886902	0.4076159283187007	0.007114240032734523	0	0	0	-1.44285993646604	0.5987607745371295	-1.38073028008111	1.53373013121601	0.02676864062676404	0	0	0	0	0	0	1.887042746403844	-1.887042746403844	0.3358601560336459	9.312077863782587	89.6641398633332	0	0	1.887042746403844	-1.887042746403844	0.3358601560336459	9.312077863782587	89.66413986246107	0	0
0.04	1.16394585003704	0.1420084683396657	89.70927130779283	0	0.9399999999999999	0	-4.633706449420867	1.277766610435128	-5.840488086794569	0.4614156501394529	0.008053222315163686	0	0	0	-1.417966113055667	0.5876175174413962	-1.461242784092216	1.585852546747066	0.02767834839187358	0	0	0	0	0	0	2.04442284873691	-2.04442284873691	0.3651727957102389	9.723879163173066	89.6348272253848	0	0	2.04442284873691	-2.04442284873691	0.3651727957102389	9.723879163173066	89.63482722451815	0	0
0.06	1.166259497662109	0.1394199916279485	89.72767844469047	0	0.9399999999999999	0	-4.610136190915817	1.288607441908495	-5.853493426198665	0.4750877857632779	0.00829184609757864	0	0	0	-1.418662060853897	0.5788147609631008	-1.441856782321694	1.576485190837109	0.02751485718903869	0	0	0	0	0	0	2.190369972696773	-2.190369972696773	0.3923526957612396	10.15125182735159	89.60764732693643	0	0	2.190369972696773	-2.190369972696773	0.3923526957612396	10.15125182735159	89.60764732607494	0	0
0.08	1.160521579642849	0.1442927734782397	89.75725515480181	0	0.9399999999999999	0	-4.599980731926469	1.279096317111411	-5.9042171209845	0.480171651953011	0.008380576301320303	0	0	0	-1.373226611690684	0.5503151469430669	-1.565261273410904	1.591739600601621	0.0277810968648778	0	0	0	0	0	0	2.19179039056394	-2.19179039056394	0.3926285608572756	10.16263802303686	89.60737146185684	0	0	2.19179039056394	-2.19179039056394	0.3926285608572756	10.16263802303686	89.60737146099545	0	0
0.1	1.155252825029932	0.09511259699830123	89.73720184710818	0	0.9399999999999999	0	-4.50066031495334	1.268584999966965	-5.874966352362491	0.5667678035885138	0.009891964266916098	0	0	0	-1.25200014119857	0.5418433824447553	-1.68898496158409	1.754104927918199	0.03061490641763038	0	0	0	0	0	0	2.330233465098146	-2.330233465098146	0.418604496528351	10.64544557807497	89.5813955277208	0	0	2.330233465098146	-2.330233465098146	0.418604496528351	10.64544557807497	89.58139552686427	0	0
0.12	1.154687663268728	0.09532115389346696	89.73146498140025	0	0.9399999999999999	0	-4.471726889182092	1.271565015114545	-5.850094752825669	0.5704455704333798	0.009956153407479695	0	0	0	-1.190006000858446	0.5380591211192314	-1.826841431684357	1.807336351648031	0.03154397002724018	0	0	0	0	0	0	2.333451999289605	-2.333451999289605	0.4192325762081228	10.67143042788286	89.5807674480786	0	0	2.333451999289605	-2.333451999289605	0.4192325762081228	10.67143042788286	89.58076744722214	0	0
0.14	1.157822833934794	0.07101829214731439	89.72626907590639	0	0.9399999999999999	0	-4.397307533877087	1.282712347539217	-5.807340473121767	0.642676896580849	0.0112168278718349	0	0	0	-1.148937641332205	0.5346505376189461	-1.838785390634266	1.888195953518252	0.0329552363117273	0	0	0	0	0	0	2.462727559984778	-2.462727559984778	0.4434532196674381	11.12481154334962	89.55654680605009	0	0	2.462727559984778	-2.462727559984778	0.4434532196674381	11.12481154334962	89.55654680519821	0	0
0.16	1.159517041569799	0.06375237843218769	89.71834080357061	0	0.9399999999999999	0	-4.36288636091798	1.289139586301338	-5.773261422118797	0.6459663658641627	0.01127423994147194	0	0	0	-0.9794823515941976	0.5283085933632943	-2.14847505387241	2.051396633309862	0.03580362551558388	0	0	0	0	0	0	2.467134599417003	-2.467134599417003	0.4443120889855555	11.15965490958532	89.55568793678331	0	0	2.467134599417003	-2.467134599417003	0.4443120889855555	11.15965490958532	89.55568793593157	0	0
0.18	1.165017753733768	0.02698518410711135	89.71965573961867	0	0.9399999999999999	0	-4.246543332212791	1.281065593043795	-5.795777773452698	0.8995361835532126	0.01569986814382763	0	0	0	-0.8731091236501414	0.5134839768874838	-2.166694281274216	2.393509427458414	0.0417746201866737	0	0	0	0	0	0	2.678505306854263	-2.678505306854263	0.4844821062410379	12.29404458361354	89.51551792191161	0	0	2.678505306854263	-2.678505306854263	0.4844821062410379	12.29404458361354	89.51551792106723	0	0
0.2	1.16139620703337	0.03336477394143931	89.69427179973266	0	0.9399999999999999	0	-4.267873280608539	1.283471725647131	-5.740671743001865	0.7109410028338309	0.01240826128688069	0	0	0	-0.7329908608419671	0.5574478328016864	-2.392361196197653	2.423510962443694	0.0422982457528191	0	0	0	0	0	0	2.683649557198748	-2.683649557198748	0.4854817702730039	12.33249621696754	89.51451825793933	0	0	2.683649557198748	-2.683649557198748	0.4854817702730039	12.33249621696754	89.51451825709506	0	0
0.22	1.182000857238439	0.001814155870557911	89.66337691302212	0	0.9399999999999999	0	-4.242059072345951	1.295823312733075	-5.729212579205073	0.6792592593624769	0.01185531055053334	0	0	0	-0.6988055792367664	0.5388723938568797	-2.421494066969549	2.480551082940616	0.0432937836612247	0	0	0	0	0	0	2.838553016141877	-2.838553016141877	0.5140156668033411	12.76001710828674	89.48598436308679	0	0	2.838553016141877	-2.838553016141877	0.5140156668033411	12.76001710828674	89.48598436224785	0	0
0.24	1.181831539466907	-0.004162373588974923	89.66267092628887	0	0.9399999999999999	0	-4.223188288972263	1.282523240540633	-5.746444263528561	0.6908590999392884	0.01205776596130514	0	0	0	-0.5813362133628573	0.5593989939066535	-2.44463279480359	2.588551582383064	0.0451787479702937	0	0	0	0	0	0	3.257841282361513	-3.257841282361513	0.5914638406777605	14.24197969788439	89.40853619377067	0	0	3.257841282361513	-3.257841282361513	0.5914638406777605	14.24197969788439	89.40853619294617	0	0
0.26	1.173967179594791	-0.03429949220638566	89.64164204347304	0	0.9399999999999999	0	-4.198040009568568	1.26804379885444	-5.749358698315549	0.6459323094169791	0.01127364554433706	0	0	0	-0.5542593295093706	0.5668355772319967	-2.465903436979498	2.598933959596236	0.0453599546368476	0	0	0	0	0	0	3.401846894743996	-3.401846894743996	0.6178047285611805	14.65226306410277	89.38219530743358	0	0	3.401846894743996	-3.401846894743996	0.6178047285611805	14.65226306410277	89.38219530661401	0	0
0.28	1.17159201196413	-0.0524736509805341	89.62074279099728	0	0.9399999999999999	0	-4.183226257976608	1.254248617740028	-5.743478642935357	0.6440424200965896	0.01124066075319798	0	0	0	-0.4834121383124331	0.5554090950123186	-2.557907372325841	2.618657850311199	0.04570420147112724	0	0	0	0	0	0	3.525701318667195	-3.525701318667195	0.6406651235634632	15.0916648332217	89.35933491377686	0	0	3.525701318667195	-3.525701318667195	0.6406651235634632	15.0916648332217	89.3593349129616	0	0
